
        A.Good.Year.2006.720p.BRRiP.x264.AC-3(5.1).mkv-Zen_Bud

Format                           : Matroska
File size                        : 1.89 GiB
Duration                         : 1h 57mn
Overall bit rate                 : 2 304 Kbps
Writing application              : mkvmerge v4.4.0 ('Die Wiederkehr') 
Writing library                  : libebml v1.0.0 + libmatroska v1.0.0

Video
ID                               : 1
Format                           : AVC
Format profile                   : High@L3.1
Format settings, CABAC           : Yes
Format settings, ReFrames        : 3 frames
Format settings, GOP             : M=1, N=4
Muxing mode                      : Header stripping
Codec ID                         : V_MPEG4
Duration                         : 1h 57mn
Bit rate                         : 1 856 Kbps
Width                            : 1 280 pixels
Height                           : 544 pixels
Display aspect ratio             : 2.35:1
Frame rate                       : 23.976 fps
Color space                      : YUV
Chroma subsampling               : 4:2:0
Bit depth                        : 8 bits
Scan type                        : Progressive
Bits/(Pixel*Frame)               : 0.111
Stream size                      : 1.49 GiB (79%)
Writing library                  : x264 core 115 r1995 c1e60b9
Encoding settings                : cabac=1 / ref=3 / deblock=1:0:0 / analyse=0x3:0x113 

Audio
ID                               : 2
Format                           : AC-3
Format/Info                      : Audio Coding 3
Mode extension                   : CM (complete main)
Muxing mode                      : Header stripping
Codec ID                         : A_AC3
Duration                         : 1h 57mn
Bit rate mode                    : Constant
Bit rate                         : 448 Kbps
Channel(s)                       : 6 channels
Channel positions                : Front: L C R, Side: L R, LFE
Sampling rate                    : 48.0 KHz
Bit depth                        : 16 bits
Compression mode                 : Lossy
Stream size                      : 377 MiB (19%)
Language                         : English

Text #1

Format                           : UTF-8
Codec ID                         : S_TEXT/UTF8
Codec ID/Info                    : UTF-8 Plain Text
Language                         : English

Text #2

Format                           : UTF-8
Codec ID                         : S_TEXT/UTF8
Codec ID/Info                    : UTF-8 Plain Text
Language                         : Swedish

======================================================================================

A British investment broker inherits his uncle's chateau and vineyard in Provence, 
where he spent much of his childhood. He discovers a new laid-back lifestyle as he 
tries to renovate the estate to be sold. 

======================================================================================
 
http://www.phyrefile.com/image/view/LlM2rho5p27NtZM7 
http://www.phyrefile.com/image/view/ndmUL0nh8qnkscXm 
http://www.phyrefile.com/image/view/CcjlA8UsxO45YACO 
http://www.phyrefile.com/image/view/H43uzZhParM5MYZI 
http://www.phyrefile.com/image/view/ON1Dp5ocu8HYvBHE 
http://www.phyrefile.com/image/view/KFcVk5QC4a8ybafj 
http://www.phyrefile.com/image/view/bBdmBg95ZvMxucX6 
http://www.phyrefile.com/image/view/jT32qk0fKsNKtjch 
http://www.phyrefile.com/image/view/9QWHEz6rxPtPlfvG 
http://www.phyrefile.com/image/view/6h2sayFKK88MED6q 
http://www.phyrefile.com/image/view/M2sQsFlmyXWJEgIE 
http://www.phyrefile.com/image/view/otRVhu8MLV9QeySC

